# xmcd CD database file
#
# Track frame offsets:
#	150
#	13190
#	25030
#	34210
#	46012
#	60567
#	71770
#	83358
#	95905
#	106723
#	121239
#	132771
#	143567
#	158490
#	172284
#	181404
#	197461
#	211930
#	224386
#	240002
#
# Disc length: 3400 seconds
#
# Revision: 0
# Processed by: cddbd v1.5.2PL0 Copyright (c) Steve Scherf et al.
# Submitted via: CDex 1.51
#
DISCID=020d4614
DTITLE=Luis Mariano - Platinum Collection  [CD 2-3]
DYEAR=2007
DGENRE=operette
TTITLE0=19xx - Sayonara
TTITLE1=19xx - Ay que calor
TTITLE2=1965 - Tu descends de la montagne
TTITLE3=1966 - Cartagenera ma brune
TTITLE4=1967 - Luna de miel
TTITLE5=1962 - Lisbonne
TTITLE6=1969 - Paris te amo
TTITLE7=1958 - Vendanges à Madeira
TTITLE8=1959 - El fuego
TTITLE9=1959 - Sortilèges d'Andalousie
TTITLE10=1960 - L'arlequin de Tolède
TTITLE11=19xx - J'ai donné mon coeur à Paris
TTITLE12=1957 - Trinidad
TTITLE13=1958 - Mi casa su casa
TTITLE14=1957 - Calypso italiano
TTITLE15=1957 - Vénézuela
TTITLE16=1958 - Bongiorno amore
TTITLE17=19xx - Cuando tengo penas
TTITLE18=1954 - Vaya con dios
TTITLE19=1953 - El vals Mexicano
EXTD=YEAR: 2007
EXTT0=
EXTT1=
EXTT2=
EXTT3=
EXTT4=
EXTT5=
EXTT6=
EXTT7=
EXTT8=
EXTT9=
EXTT10=
EXTT11=
EXTT12=
EXTT13=
EXTT14=
EXTT15=
EXTT16=
EXTT17=
EXTT18=
EXTT19=
PLAYORDER=
